<svg width="60" height="60" viewBox="0 0 60 60" fill="none" xmlns="http://www.w3.org/2000/svg">
<path d="M50.0719 4.76156C49.7625 4.76156 49.4494 4.7775 49.1362 4.80844C48.3412 4.88906 47.5725 4.97813 46.8094 5.06906C45.5147 3.08625 43.5028 1.875 41.4628 1.875C40.6556 1.875 39.8466 2.06156 39.0787 2.46094C38.2331 2.90156 37.4016 3.36656 36.5756 3.83906C35.4328 3.09187 34.0041 2.67 32.4525 2.67C30.8278 2.67 29.0794 3.12094 27.4162 4.10906C25.984 4.9671 24.5842 5.87836 23.22 6.84094C22.5666 5.76375 21.8644 5.10187 21.1453 5.10187C21.0403 5.10187 20.9353 5.11594 20.8294 5.14406C15.5166 6.56906 7.52906 14.5509 6.10125 19.8619C5.81718 20.9166 6.15843 21.3656 6.94687 21.5372C6.82312 22.1156 6.88125 22.5309 7.10156 22.8263C6.04277 24.3095 5.04507 25.8355 4.11093 27.4003C2.50125 30.1022 2.32218 33.0253 3.1875 35.28C3.23343 35.9166 3.34218 36.5344 3.51656 37.1194C3.16125 37.7625 2.80125 38.4009 2.46187 39.0534C1.52343 40.8544 1.75875 42.885 2.83875 44.5753C3.14343 45.8222 3.84843 47.0325 4.88343 48.0431C4.84875 48.4078 4.81125 48.7594 4.78125 49.1287C4.39968 53.6709 7.39406 58.125 11.0709 58.125C13.2947 58.125 15.7669 56.4966 17.8931 52.2713C17.9944 52.0688 18.105 51.8737 18.2081 51.6722C19.1062 51.2775 19.8037 50.6813 20.1909 49.9003C20.9052 48.4557 21.6758 47.0396 22.5009 45.6553C24.2053 45.1313 25.6191 44.0681 26.4178 42.6291C29.875 36.3142 34.9336 31.0206 41.085 27.2803C42.1359 26.6334 42.9609 25.6491 43.4953 24.4697C45.0483 23.5243 46.642 22.6475 48.2719 21.8419C49.3116 21.3263 50.0297 20.2687 50.3719 18.9103C51.0056 18.5709 51.6375 18.2288 52.2816 17.9072C62.9503 12.5466 57.0553 4.76156 50.0719 4.76156ZM21.0478 7.03219C21.6862 7.62656 23.1309 10.2788 24.2137 15.6966C24.9862 19.5609 25.1119 22.4353 24.9937 24.0347C20.5406 20.0691 15.765 19.5881 12.4875 19.5881C11.4497 19.5881 10.5056 19.6425 9.67218 19.6884C9.06656 19.7231 8.53968 19.7531 8.1 19.755C9.74531 15.1894 16.5872 8.42344 21.0478 7.03219ZM11.0709 56.25C9.93 56.25 9.03093 55.5328 8.47687 54.9319C7.19625 53.5388 6.5025 51.4209 6.64593 49.38C7.00875 49.5909 7.38656 49.7869 7.78687 49.9519C8.84906 50.4084 9.91125 50.8641 10.9706 51.3216C12.6441 52.0134 14.3194 52.29 15.7922 52.2103C14.3269 54.8156 12.6694 56.25 11.0709 56.25ZM17.0812 46.2328C16.6228 47.1112 15.2372 47.6784 13.5516 47.6784C12.4722 47.6685 11.4036 47.464 10.3969 47.0747L8.86687 46.4634L7.31343 45.8438C5.74781 45.2456 4.50843 44.0859 3.99843 42.7397C3.73968 42.0581 3.55125 41.0166 4.12406 39.9178C4.24593 39.6853 4.37718 39.4584 4.50093 39.2269C5.23406 40.3078 6.23906 41.1488 7.45406 41.6053C10.56 42.8747 13.6706 44.1431 16.7794 45.4088C16.9912 45.4884 17.2031 45.5559 17.4141 45.6206C17.3053 45.8259 17.1881 46.0266 17.0812 46.2328ZM38.7703 23.1863C32.3713 26.9942 27.0228 32.3375 23.2087 38.7328C22.3322 40.1841 20.4722 41.1216 18.4669 41.1216C17.6466 41.1216 16.8328 40.9716 16.0491 40.6744L7.2825 37.0462L7.22812 37.0238L7.20375 37.0134L7.17843 37.0041C6.12375 36.6019 5.30343 35.6953 4.87218 34.4522C4.23 32.6063 4.54781 30.3291 5.7225 28.3584C6.7137 26.6949 7.77915 25.0767 8.91562 23.5088C12.4153 23.8547 19.8122 22.6462 26.1309 28.9659C28.5019 31.3359 27.6759 19.7541 25.395 12.5006C25.0078 11.0447 24.5616 9.67875 24.0731 8.52937C25.4688 7.53529 26.904 6.59797 28.3753 5.71969C29.6691 4.95 31.0791 4.54313 32.4525 4.54313C34.6256 4.54313 36.4228 5.57625 37.0331 7.17469L37.0434 7.19906L37.0528 7.22437L38.2744 10.1709L40.7081 16.0387C41.8641 19.0875 40.6294 22.0669 38.7703 23.1863ZM46.2722 17.0681C45.4219 17.5106 44.5847 17.9719 43.7569 18.4463C43.6607 18.1357 43.5486 17.8303 43.4212 17.5313L42.5475 15.6459C42.5137 15.5466 42.4856 15.4453 42.4472 15.3469L38.7834 6.50719C38.5948 6.02858 38.3377 5.57985 38.0203 5.175C38.6578 4.81969 39.2934 4.46156 39.9441 4.12406C40.4127 3.87853 40.9338 3.75018 41.4628 3.75C43.2881 3.75 45.0637 5.18156 45.8887 7.33687L47.1028 10.3669C48.2822 13.4437 47.6091 16.3687 46.2722 17.0681ZM51.4444 16.2309C51.1556 16.3744 50.8772 16.5309 50.5912 16.6791C50.5537 15.405 50.2678 14.0166 49.6931 12.63L49.4841 12.1434C49.367 11.3068 49.155 10.4862 48.8522 9.6975C48.4734 8.74969 48.0919 7.80188 47.7141 6.85406C48.2466 6.79312 48.7753 6.73031 49.3247 6.67594C49.5722 6.65156 49.8225 6.63844 50.0719 6.63844C52.9434 6.63844 55.68 8.32781 56.1731 10.4053C56.6381 12.3628 54.9131 14.4872 51.4444 16.2309Z" fill="#7C1F2A"/>
</svg>
