<svg width="60" height="60" viewBox="0 0 60 60" fill="none" xmlns="http://www.w3.org/2000/svg">
<path d="M51.75 5.58398C51.0703 5.58398 50.332 5.66016 49.5352 5.80898C47.0859 6.2625 44.1328 7.39805 40.957 9.03516C40.2891 9.37852 39.6094 9.74297 38.9297 10.1285C40.2656 10.5387 41.6133 10.9793 42.7617 11.4938C43.793 11.9414 44.6836 12.4453 45.3281 13.1836C45.9727 13.9336 46.2305 15.1406 45.7383 16.1484C45.4102 16.8164 44.8711 16.9687 44.4023 17.0977C43.9219 17.2148 43.3945 17.2734 42.7969 17.2969C41.5898 17.3555 40.0664 17.2734 38.4023 17.1094C35.6836 16.8516 32.5898 16.3828 30.0469 15.8789C28.4531 17.0273 26.8594 18.2344 25.2773 19.4883C26.6016 19.9102 27.8438 20.4609 28.9219 21.082C30.1406 21.7852 31.1367 22.5469 31.793 23.4141C32.1211 23.8594 32.3789 24.3398 32.4375 24.9141C32.4961 25.5 32.2734 26.1562 31.8398 26.5898C30.8906 27.5625 29.5664 27.5977 28.0547 27.5742C26.5547 27.5625 24.8086 27.3281 23.0742 27.0234C21.1406 26.6719 19.2891 26.25 17.8359 25.875C15.9258 27.6211 14.1328 29.3789 12.4688 31.0898C13.5938 31.5234 14.8125 32.0859 15.9023 32.6836C16.8398 33.1992 17.6719 33.7266 18.293 34.3242C18.6094 34.6172 18.8789 34.9219 19.0664 35.3438C19.2539 35.7656 19.3008 36.3984 19.0195 36.8906V36.9023C18.7031 37.4297 18.2578 37.6289 17.8242 37.793C17.4023 37.957 16.9219 38.0742 16.3828 38.1562C15.3047 38.332 14.0156 38.4141 12.6562 38.4375C10.3652 38.4727 7.99102 38.332 6.37734 38.0742C5.98711 38.5898 5.61914 39.082 5.2793 39.5742C3.6375 41.9297 2.63086 43.9805 2.40352 45.2812C2.28984 45.9375 2.36367 46.3477 2.49844 46.5938C2.63203 46.8398 2.83945 47.0273 3.40547 47.1797C4.48125 47.4492 6.31289 47.2383 8.57461 46.4414C10.8363 45.6445 13.5234 44.332 16.4297 42.6328C22.2422 39.2344 28.9219 34.3477 35.0742 29.2031C41.2266 24.0586 46.8516 18.6562 50.5664 14.25C52.418 12.0469 53.8008 10.0957 54.5039 8.6332C54.8555 7.90078 55.0312 7.29492 55.0664 6.90937C55.0898 6.58359 55.0547 6.47812 54.9844 6.39844C54.2227 5.89805 53.2383 5.62031 52.043 5.5875H51.75V5.58398ZM36.457 11.5816C35.1445 12.3867 33.8086 13.2539 32.4609 14.168C34.4648 14.5195 36.6563 14.8242 38.6133 15.0117C40.2188 15.1641 41.6719 15.2344 42.7031 15.1875C43.2188 15.1641 43.6289 15.1172 43.8516 15.0586C43.9219 15.0352 43.9102 15.0352 43.9336 15.0234C43.9922 14.8477 43.9453 14.8008 43.7344 14.5664C43.4648 14.25 42.7969 13.8164 41.9063 13.418C40.4297 12.7617 38.3789 12.1641 36.457 11.5816ZM55.125 11.7539C54.3281 12.9375 53.332 14.2383 52.1719 15.6094C50.9063 17.1094 49.4414 18.7031 47.8242 20.3672C48.8906 20.4141 50.0625 20.3203 51.2578 20.0273C53.3906 19.5 55.1836 18.4687 56.3086 17.332C57.4219 16.1836 57.832 15.0234 57.5859 14.0273C57.3516 13.0664 56.5195 12.2461 55.125 11.7539ZM23.2383 21.1523C22.418 21.832 21.6094 22.5117 20.8125 23.2031C20.4492 23.5195 20.0859 23.8359 19.7227 24.1641C20.8711 24.4336 22.1602 24.7148 23.4492 24.9492C25.1133 25.2422 26.7773 25.4531 28.0898 25.4648C29.3906 25.4883 30.293 25.1484 30.3398 25.1133C30.3281 25.0664 30.2812 24.9141 30.1055 24.6797C29.7539 24.1992 28.9336 23.5195 27.8672 22.9219C26.5664 22.1719 24.8906 21.5156 23.2383 21.1523ZM45.9258 22.2539C43.5938 24.5391 41.0039 26.9062 38.2852 29.2383C38.9063 29.332 39.5625 29.3906 40.2422 29.3906C42.4453 29.3906 44.4258 28.8164 45.7852 27.9727C47.1445 27.1289 47.8125 26.0977 47.8125 25.0664C47.8125 24.0703 47.1914 23.0859 45.9258 22.2539ZM56.1914 22.3359C55.8984 22.6289 55.5938 22.9336 55.2539 23.2148C48.1758 29.2031 39.6211 36.9492 31.0078 43.043C22.5234 49.0547 13.9805 53.5547 6.45469 52.9336C7.27266 53.5313 8.1375 53.8945 9.00586 54.1172C11.2254 54.7031 13.5234 54.293 14.8359 53.918C24.3047 51.1875 34.3828 44.4961 42.1523 38.1445C46.0313 34.9688 49.3359 31.8867 51.7031 29.4375C52.8867 28.2187 53.8359 27.1641 54.5039 26.3438C55.1719 25.5352 55.5469 24.7969 55.5234 24.9023C55.793 23.9883 56.0156 23.1328 56.1914 22.3359ZM36.2578 30.9492C33.5742 33.1992 30.7969 35.3906 28.0195 37.4414C28.6523 37.5234 29.3086 37.5703 29.9883 37.5703C32.3555 37.5703 34.4883 37.0195 35.9414 36.1992C37.3945 35.3789 38.0859 34.3945 38.0859 33.4805C38.0859 32.6367 37.5 31.7344 36.2578 30.9492ZM10.875 32.7773C9.81328 33.9258 8.82773 35.0391 7.92891 36.1289C9.27774 36.2578 11.0168 36.3398 12.6328 36.3281C13.9219 36.3047 15.1406 36.2227 16.043 36.082C16.3945 36.0234 16.6523 35.9414 16.8633 35.8828C16.8516 35.8594 16.8633 35.8711 16.8516 35.8594C16.4648 35.4844 15.7383 34.9922 14.8828 34.5234C13.6289 33.832 12.082 33.1758 10.875 32.7773ZM25.0195 39.5977C22.4414 41.4023 19.9102 43.043 17.4961 44.4492C16.7578 44.8828 16.043 45.2813 15.3281 45.668C16.2773 45.8789 17.332 45.9961 18.4219 45.9961C20.7891 45.9961 22.9219 45.4453 24.375 44.625C25.8281 43.8047 26.5195 42.8203 26.5195 41.9062C26.5195 41.1445 26.0273 40.3242 25.0195 39.5977ZM12.1406 47.2617C11.1398 47.7188 10.1824 48.1172 9.27188 48.4336C6.99375 49.2305 4.99219 49.6289 3.27891 49.3008C3.39609 49.418 3.52383 49.5234 3.66445 49.6289C4.53633 50.2852 5.8125 50.7188 7.24336 50.7188C8.67422 50.7188 9.95039 50.2852 10.8223 49.6289C11.6918 48.9844 12.1406 48.1875 12.1406 47.3438V47.2617Z" fill="#7C1F2A"/>
</svg>
