<svg width="60" height="60" viewBox="0 0 60 60" fill="none" xmlns="http://www.w3.org/2000/svg">
<path d="M28.8206 24.4519C29.0287 24.5213 29.2444 24.5719 29.4619 24.6038C29.8087 24.6919 30.1612 24.7538 30.5175 24.7913C30.6871 25.6075 31.1269 26.3429 31.7658 26.8786C32.4047 27.4142 33.2054 27.719 34.0388 27.7437C34.8721 27.7684 35.6895 27.5116 36.359 27.0147C37.0285 26.5178 37.511 25.8098 37.7287 25.005C38.1375 23.5313 38.3475 22.0088 38.3531 20.4788C39.2479 19.2649 39.9838 17.9417 40.5431 16.5413L40.5675 16.485L40.7681 15.9975L41.025 15.3488C41.2994 14.638 41.5588 13.9216 41.8031 13.2L41.8537 13.05L41.8725 12.99C42 12.615 42.1275 12.1988 42.2475 11.7788C42.3187 11.5369 42.3862 11.2913 42.4519 11.0438C42.7601 9.94627 42.9623 8.82174 43.0556 7.68563V7.62938C43.0881 6.69945 42.7737 5.79065 42.1736 5.07959C41.5734 4.36853 40.7303 3.90599 39.8081 3.78188C39.0788 3.68828 38.3381 3.81565 37.6819 4.1475C37.1056 4.43932 36.6144 4.87505 36.256 5.41248C35.8976 5.94991 35.6841 6.57081 35.6362 7.215V7.23375C35.4902 8.38029 35.2198 9.50754 34.83 10.5956C34.6425 11.1581 34.455 11.6925 34.2675 12.1706C33.8925 11.9775 33.4987 11.8144 33.0975 11.6831L33.0619 11.6663C31.3735 11.1295 29.5417 11.2796 27.9632 12.084C26.3847 12.8884 25.1868 14.2824 24.6289 15.9639C24.071 17.6454 24.1982 19.479 24.9828 21.0674C25.7674 22.6558 27.1462 23.8711 28.8206 24.45V24.4519ZM35.9194 24.51C35.8196 24.8802 35.6063 25.2098 35.3095 25.4525C35.0127 25.6952 34.6472 25.8387 34.2646 25.8629C33.882 25.8871 33.5014 25.7908 33.1763 25.5875C32.8513 25.3841 32.5981 25.084 32.4525 24.7294C32.8087 24.6656 33.1594 24.5756 33.5006 24.4594C34.532 24.0924 35.4808 23.5253 36.2925 22.7906C36.1987 23.3719 36.075 23.9438 35.9194 24.51ZM26.3381 16.5225C26.5386 15.9179 26.8563 15.3587 27.273 14.877C27.6897 14.3952 28.1972 14.0002 28.7666 13.7147C29.336 13.4291 29.9561 13.2585 30.5914 13.2127C31.2268 13.1668 31.8649 13.2466 32.4694 13.4475L32.5256 13.4663C32.8912 13.5825 33.2437 13.7363 33.5775 13.9238L33.5381 14.0156V14.0381C33.1189 15.0138 32.5495 15.9179 31.8506 16.7175L31.8206 16.7475L31.7737 16.8019C31.7139 16.8724 31.6514 16.9406 31.5862 17.0063C31.5243 16.981 31.4618 16.9572 31.3987 16.935L31.3425 16.9163C31.0441 16.8176 30.7188 16.8411 30.4377 16.9817C30.1566 17.1222 29.9426 17.3683 29.8425 17.6663C29.7863 17.8114 29.7623 17.9671 29.772 18.1224C29.7817 18.2778 29.825 18.4292 29.8987 18.5663C30.0112 18.8063 30.2025 18.9994 30.4406 19.1138C30.5044 19.1288 30.5662 19.1456 30.6281 19.1663C30.7969 19.2263 30.9731 19.2656 31.1512 19.2806C31.4367 19.2975 31.7209 19.2324 31.9706 19.0931C32.1019 19.0256 32.2275 18.9488 32.3456 18.8606C32.6606 18.6131 32.9494 18.3356 33.2044 18.0263L33.2231 18.0075C34.0609 17.0636 34.7426 15.992 35.2425 14.8331C35.3009 14.7002 35.3559 14.5657 35.4075 14.43C35.4099 14.4208 35.4099 14.4111 35.4075 14.4019L35.4262 14.3569C35.5306 14.1125 35.6318 13.8669 35.73 13.62L35.7937 13.4569L35.8575 13.2919C36.6525 11.3888 37.2075 9.39375 37.5131 7.35375C37.5488 6.86727 37.7728 6.41389 38.1375 6.09C38.5008 5.76672 38.9776 5.60082 39.4631 5.62875C39.8662 5.65125 40.2506 5.80875 40.5506 6.07875C40.7604 6.26267 40.9265 6.49109 41.0367 6.74734C41.147 7.00359 41.1987 7.28123 41.1881 7.56C41.1694 7.85813 41.1337 8.17313 41.085 8.4975C40.935 9.42 40.725 10.335 40.455 11.2294L40.3762 11.4919C40.0357 12.6092 39.651 13.7125 39.2231 14.7994L39.1612 14.9569C39.0551 15.226 38.9463 15.4942 38.835 15.7613L38.8069 15.8288L38.6456 16.2188C37.9863 17.7485 37.0918 19.1656 35.9944 20.4188C35.1162 21.5363 33.9188 22.3603 32.5612 22.7812C31.9246 22.9542 31.26 23.0001 30.6056 22.9163C30.3384 22.8831 30.0739 22.8305 29.8144 22.7587C29.6777 22.7469 29.543 22.7186 29.4131 22.6744C28.8072 22.4725 28.2469 22.1532 27.7644 21.7347C27.2819 21.3163 26.8866 20.8068 26.601 20.2355C26.3155 19.6642 26.1453 19.0423 26.1002 18.4052C26.0551 17.7681 26.1359 17.1283 26.3381 16.5225ZM22.6125 7.4625C22.4162 7.60161 22.194 7.69997 21.9591 7.75175C21.7242 7.80353 21.4812 7.8077 21.2447 7.76399C21.0081 7.72029 20.7827 7.6296 20.5818 7.4973C20.3808 7.365 20.2085 7.19376 20.0748 6.9937C19.9412 6.79365 19.8491 6.56883 19.8038 6.33255C19.7585 6.09627 19.7611 5.85332 19.8113 5.61805C19.8616 5.38278 19.9585 5.15996 20.0963 4.96278C20.2341 4.76559 20.4101 4.59803 20.6137 4.47C21.0106 4.22054 21.4891 4.13574 21.9476 4.23363C22.406 4.33152 22.8081 4.60438 23.0685 4.99418C23.3288 5.38399 23.4269 5.85998 23.3417 6.32094C23.2566 6.78189 22.9949 7.19145 22.6125 7.4625ZM44.94 42.7988C45.1382 42.658 45.3627 42.5584 45.6001 42.5058C45.8375 42.4533 46.083 42.4489 46.3221 42.4929C46.5613 42.5368 46.7892 42.6283 46.9923 42.7619C47.1955 42.8955 47.3698 43.0685 47.505 43.2706C47.6401 43.4727 47.7334 43.6998 47.7792 43.9386C47.8251 44.1774 47.8226 44.423 47.7719 44.6608C47.7212 44.8986 47.6233 45.1238 47.4841 45.3231C47.3449 45.5224 47.1671 45.6918 46.9612 45.8213C46.5604 46.0733 46.077 46.1591 45.6139 46.0604C45.1508 45.9617 44.7445 45.6862 44.4813 45.2926C44.218 44.899 44.1187 44.4183 44.2044 43.9526C44.29 43.4869 44.5539 43.0729 44.94 42.7988ZM46.8131 16.71C47.39 16.71 47.9432 16.4809 48.3511 16.073C48.759 15.6651 48.9881 15.1118 48.9881 14.535C48.9881 13.9582 48.759 13.4049 48.3511 12.997C47.9432 12.5892 47.39 12.36 46.8131 12.36C46.2363 12.36 45.6831 12.5892 45.2752 12.997C44.8673 13.4049 44.6381 13.9582 44.6381 14.535C44.6381 15.1118 44.8673 15.6651 45.2752 16.073C45.6831 16.4809 46.2363 16.71 46.8131 16.71ZM12.4706 16.3425C12.2333 16.5083 11.9653 16.6251 11.6823 16.686C11.3992 16.7469 11.1069 16.7507 10.8224 16.6971C10.5379 16.6435 10.2669 16.5337 10.0254 16.3741C9.78393 16.2144 9.57672 16.0082 9.41596 15.7674C9.2552 15.5267 9.14413 15.2562 9.08924 14.972C9.03436 14.6877 9.03678 14.3954 9.09636 14.1121C9.15593 13.8288 9.27147 13.5602 9.43619 13.3221C9.60091 13.084 9.8115 12.8813 10.0556 12.7256C10.5355 12.4054 11.1229 12.2889 11.6887 12.4017C12.2545 12.5146 12.7522 12.8476 13.0725 13.3275C13.3927 13.8074 13.5092 14.3948 13.3964 14.9606C13.2835 15.5264 12.9505 16.0241 12.4706 16.3444" fill="#7C1F2A"/>
<path d="M55.1175 27.9188C54.884 28.0267 54.6315 28.0876 54.3744 28.0979C54.1173 28.1082 53.8608 28.0677 53.6194 27.9787C51.6309 27.2347 49.4853 27.0111 47.3862 27.3291C45.287 27.6471 43.3039 28.4961 41.625 29.7956C45.9881 29.9081 50.2537 31.0969 54.0431 33.2625C54.9697 33.7855 55.6519 34.6537 55.9411 35.6776C56.2302 36.7016 56.1028 37.7984 55.5866 38.7288C55.0704 39.6592 54.2073 40.3478 53.1855 40.6445C52.1637 40.9411 51.0661 40.8218 50.1319 40.3125C47.8887 39.0106 45.3941 38.2013 42.8139 37.9385C40.2337 37.6756 37.6271 37.9653 35.1675 38.7881C35.7956 39.9937 36.2662 41.2762 36.5644 42.6038C36.6712 42.9994 36.7237 43.41 36.7219 43.8188C36.7855 44.3369 36.7381 44.8627 36.583 45.3612C36.4278 45.8597 36.1684 46.3195 35.8219 46.71C35.6719 46.86 35.505 46.9912 35.325 47.1019C34.771 47.634 34.09 48.0155 33.3469 48.21L9.46311 54.6037C8.69305 54.8092 7.88246 54.8083 7.11289 54.6009C6.34333 54.3936 5.64195 53.9873 5.07933 53.4227C4.51672 52.8582 4.11272 52.1555 3.90799 51.3852C3.70326 50.615 3.70503 49.8044 3.91311 49.035L10.3069 25.1475C10.5032 24.3959 10.8908 23.708 11.4319 23.1506C11.5386 22.9777 11.6644 22.8174 11.8069 22.6725C12.1851 22.3346 12.63 22.0795 13.1128 21.9239C13.5955 21.7682 14.1056 21.7154 14.61 21.7687C15.0656 21.7575 15.5212 21.8156 15.96 21.9412C17.1245 22.2043 18.2536 22.6046 19.3237 23.1337C19.8487 20.0962 19.3425 16.9687 17.8819 14.2537C17.6059 13.7391 17.5456 13.1358 17.7144 12.5767C17.8832 12.0176 18.2672 11.5485 18.7819 11.2725C19.2965 10.9965 19.8998 10.9363 20.4589 11.1051C21.018 11.2738 21.4871 11.6578 21.7631 12.1725C23.956 16.2577 24.5085 21.0253 23.3081 25.5037C24.7636 26.537 26.1474 27.6677 27.45 28.8881C27.845 28.4877 28.3808 28.2574 28.9432 28.2465C29.5056 28.2356 30.05 28.4448 30.4603 28.8297C30.8705 29.2145 31.1142 29.7444 31.1392 30.3063C31.1643 30.8682 30.9687 31.4177 30.5944 31.8375C33.3106 30.7745 36.1665 30.1108 39.0731 29.8669C38.8426 29.6819 38.6567 29.4474 38.5292 29.1807C38.4017 28.9141 38.3359 28.6222 38.3366 28.3266C38.3373 28.0311 38.4046 27.7395 38.5334 27.4735C38.6622 27.2075 38.8492 26.9739 39.0806 26.79C41.2937 25.0397 43.9212 23.8905 46.7088 23.4536C49.4963 23.0167 52.3494 23.307 54.9919 24.2962C55.354 24.4334 55.6676 24.6746 55.8931 24.9894C56.1187 25.3042 56.2462 25.6787 56.2596 26.0657C56.273 26.4528 56.1718 26.8351 55.9686 27.1648C55.7654 27.4945 55.4693 27.7568 55.1175 27.9188ZM21.5775 41.7131L21.2381 41.4225L21.5494 41.6887L21.5775 41.7131ZM21.5775 41.7131L21.825 41.9231C21.743 41.852 21.6604 41.7832 21.5775 41.7131ZM7.60124 52.7887C8.05124 52.9106 8.52749 52.9106 8.97936 52.7906L10.0631 52.5075C8.53054 51.3963 7.15389 50.0846 5.96999 48.6075L5.72436 49.5262C5.63327 49.8637 5.60956 50.2158 5.6546 50.5624C5.69963 50.909 5.81252 51.2434 5.98682 51.5464C6.16112 51.8494 6.39341 52.115 6.67042 52.3282C6.94743 52.5414 7.26372 52.6979 7.60124 52.7887ZM10.5937 48.0881C11.928 49.3191 13.4298 50.355 15.0544 51.165L20.3006 49.7606C18.2591 48.5543 16.3542 47.1304 14.6194 45.5137C12.3512 43.3708 10.3709 40.9423 8.72811 38.2894L7.23936 43.8562C8.15063 45.4192 9.28013 46.8441 10.5937 48.0881ZM17.1881 42.7725C19.6904 45.0828 22.5612 46.9587 25.6819 48.3225L30.3525 47.07C26.0813 45.3812 22.2336 42.7741 19.0819 39.4331C17.9783 38.3357 16.9366 37.1777 15.9619 35.9644C15.5306 35.43 15.1294 34.8956 14.7544 34.365C13.3513 32.4706 12.2321 30.3818 11.4319 28.1644L10.1137 33.1537C11.9031 36.7418 14.2961 39.9954 17.1881 42.7725ZM53.8144 35.4412C53.6303 35.2183 53.4033 35.0347 53.1469 34.9012H53.1375C49.9598 33.0837 46.4173 31.9965 42.7671 31.7186C39.1169 31.4406 35.4506 31.9789 32.0344 33.2944L31.6744 33.4256L31.6912 33.4444C28.1388 34.8669 24.9673 37.0985 22.4287 39.9619C22.9144 40.3875 23.385 40.7775 23.8519 41.1525C24.5062 41.6775 25.1644 42.1631 25.9144 42.6525C27.9605 40.2977 30.5541 38.4819 33.4669 37.365C36.307 36.2509 39.3612 35.7893 42.4038 36.0142C45.4464 36.2391 48.3995 37.1448 51.045 38.6644C51.4814 38.9261 51.9963 39.0251 52.4987 38.9438C53.0011 38.8625 53.4585 38.6061 53.79 38.22C54.1216 37.8339 54.3059 37.343 54.3103 36.8342C54.3148 36.3253 54.1391 35.8312 53.8144 35.4394" fill="#7C1F2A"/>
</svg>
