<svg width="60" height="60" viewBox="0 0 60 60" fill="none" xmlns="http://www.w3.org/2000/svg">
<path d="M30 10.8164C23.7656 10.8164 17.9531 12.5508 13.3359 15.1992L15 17.8242L13.2188 18.9492L11.5512 16.3125C11.2969 16.4766 11.0473 16.6523 10.8023 16.8281C6.26133 20.0977 3.40547 24.293 2.98594 28.2188C3.33516 29.0039 3.9375 30.2695 4.71328 31.5938C5.9707 33.7383 7.78594 35.8828 9.07149 36.2578C11.1715 35.9648 13.0547 33.668 14.9648 33.9961C17.9063 34.5938 19.4297 37.3242 20.8594 39.6211C21.9492 41.3203 23.332 43.6875 25.3242 43.8984C26.0508 43.9805 26.6836 43.7578 27.3984 43.2891C28.1133 42.8086 28.8633 42.0703 29.6484 41.2617C31.1953 39.6562 32.8945 37.6406 35.4492 37.3242C37.2422 37.0898 38.6836 38.0508 39.9141 38.7773C41.1328 39.4922 42.1055 39.9727 42.9023 39.7852H42.9141C44.2148 39.1523 44.8828 38.0508 45.5039 37.0664L41.332 34.0898L42.5508 32.3789L46.7578 35.3789C47.3555 34.7344 48.0938 34.207 49.0664 33.9961C50.4141 33.7031 51.457 34.4414 52.2422 34.9336C53.0156 35.4258 53.5547 35.6719 53.8594 35.6133C54.2227 35.543 55.2422 34.793 55.9805 33.9961C56.2148 33.7383 56.4375 33.4805 56.6133 33.2578C56.918 31.9805 57.0703 30.6328 57.0703 29.2148C57.0703 29.0391 57.0586 28.8633 57.0586 28.6992L52.6523 30.8906L51.7148 28.9922L56.6836 26.5078C55.7461 23.1094 53.0859 19.6289 49.1953 16.8281C44.2734 13.2773 37.4414 10.8164 30 10.8164ZM38.0977 12.4805L38.8008 14.4727L32.9062 16.5938L32.2031 14.6016L38.0977 12.4805ZM21.668 13.7695L25.582 14.8945L24.9961 16.9102L21.082 15.7969L21.668 13.7695ZM43.2773 16.4648L47.9297 19.6992L46.7344 21.4336L42.082 18.1992L43.2773 16.4648ZM37.6992 17.9648L38.9648 19.6523L35.0977 22.5234L33.832 20.8359L37.6992 17.9648ZM19.3008 21.9492L19.6055 24.0352L14.2617 24.8438L13.957 22.7578L19.3008 21.9492ZM30 22.3711C32.0859 22.3711 33.9844 22.7461 35.4492 23.4375C36.9141 24.1172 38.1328 25.1953 38.1328 26.7188C38.1328 28.2422 36.9141 29.3203 35.4492 30C33.9844 30.6914 32.0859 31.0664 30 31.0664C27.9141 31.0664 26.0156 30.6914 24.5508 30C23.0859 29.3203 21.8672 28.2422 21.8672 26.7188C21.8672 25.1953 23.0859 24.1172 24.5508 23.4375C26.0156 22.7461 27.9141 22.3711 30 22.3711ZM47.1328 23.0273L47.6719 25.0664L42.1406 26.4961L41.6016 24.457L47.1328 23.0273ZM30 24.4805C28.1719 24.4805 26.5313 24.832 25.4414 25.3477C24.3398 25.8516 23.9766 26.4258 23.9766 26.7188C23.9766 27.0117 24.3398 27.5859 25.4414 28.0898C26.5313 28.6055 28.1719 28.957 30 28.957C31.8281 28.957 33.4688 28.6055 34.5586 28.0898C35.6602 27.5859 36.0234 27.0117 36.0234 26.7188C36.0234 26.4258 35.6602 25.8516 34.5586 25.3477C33.4688 24.832 31.8281 24.4805 30 24.4805ZM7.21406 26.5898L11.8711 28.3945L11.1094 30.3633L6.45235 28.5586L7.21406 26.5898ZM3.46406 33.6094C4.52578 37.7812 7.11914 41.1914 10.7941 43.793C15.6797 47.2383 22.5117 49.1836 30 49.1836C37.4883 49.1836 44.3203 47.2383 49.207 43.793C51.6797 42.0469 53.6719 39.9258 55.0195 37.4414C54.7852 37.5469 54.5391 37.6289 54.2812 37.6758C52.9336 37.957 51.8906 37.207 51.1172 36.7148C50.332 36.2344 49.8047 35.9883 49.5117 36.0586C48.668 36.2461 47.9414 37.1953 47.0977 38.4961C46.2422 39.7852 45.2695 41.4258 43.3711 41.8477C41.5898 42.2461 40.0898 41.332 38.8359 40.5937C37.5938 39.8555 36.5508 39.3047 35.7188 39.4102C33.75 39.9961 32.2969 41.5547 31.1602 42.7266C30.3633 43.5586 29.543 44.4023 28.5703 45.0469C27.5977 45.6914 26.4258 46.125 25.1133 46.0078C21.9727 45.4336 20.5195 43.0898 19.0664 40.7344C17.625 38.4258 16.3125 36.4219 14.543 36.0586C12.3516 36.4102 10.8375 38.918 8.47969 38.2734C6.31992 37.6406 4.72852 35.6367 3.46406 33.6094ZM29.6719 33.9375L29.9766 36.0234L24.0703 36.8906L23.7656 34.8047L29.6719 33.9375Z" fill="#7C1F2A"/>
</svg>
