<svg width="60" height="60" viewBox="0 0 60 60" fill="none" xmlns="http://www.w3.org/2000/svg">
<path d="M26.2939 2.28515C26.2205 2.28574 26.1475 2.28925 26.0742 2.29254C23.3888 2.41019 21.3979 4.25379 20.7934 6.405C20.2314 8.40539 20.7386 10.6226 23.335 12.2535C20.4306 12.849 18.1105 15.0891 17.4023 17.9516L3.30703 31.1865L43.7074 25.4809C43.1583 24.1139 42.8364 22.6035 42.8027 21.0424C41.3528 21.452 39.8218 21.2557 38.6206 20.4749C37.1577 19.5239 36.357 17.6161 36.8445 15.4393C35.5554 14.9864 34.4639 14.1341 33.4534 13.0773C33.1405 13.3038 32.7975 13.5135 32.4132 13.7183C31.8386 14.0242 31.1889 14.3038 30.4907 14.5421C29.8527 13.8609 29.0972 13.3002 28.2604 12.8869C28.4964 12.8395 28.7309 12.7845 28.9635 12.722C29.8682 12.4794 30.7205 12.1378 31.3841 11.7845C32.0479 11.4311 32.5232 11.0239 32.633 10.8763L33.4568 9.77027L34.3504 10.825C35.7402 12.4705 36.8918 13.3761 38.3823 13.5824L39.8143 13.7804L39.2357 15.1058C38.3746 17.0771 38.9169 18.0531 39.8143 18.6362C40.7116 19.2196 42.1777 19.255 43.3227 18.3983L45.399 16.8421L45.0657 19.4164C44.57 23.2227 46.3997 27.0264 48.7975 28.5424C49.9963 29.3004 51.2654 29.5336 52.6389 29.0733C54.0128 28.6131 55.5597 27.3846 57.0373 24.9243C59.5785 20.6923 55.2647 15.7866 51.4854 17.1166L49.9913 17.644L50.0278 16.0582C50.1347 11.6852 46.0043 8.11031 41.3156 9.14062L40.3269 9.35672L40.0304 8.38992C39.5629 6.86297 38.6007 5.84754 37.5472 5.43093C36.4939 5.01422 35.3382 5.11418 34.1306 6.09011L33.1966 6.84433L32.5303 5.84472C30.967 3.50039 28.5717 2.2664 26.2938 2.28515H26.2939ZM24.8766 14.2859C25.0601 14.2859 25.2401 14.2943 25.4187 14.3116C24.4601 14.7565 23.7963 15.7264 23.7963 16.853C23.7963 18.4003 25.0506 19.6546 26.5979 19.6546C28.1452 19.6546 29.3993 18.4002 29.3993 16.853C29.3993 16.7773 29.3941 16.7037 29.3883 16.6295C30.0152 17.5239 30.3844 18.6123 30.3844 19.7936C30.3844 20.5138 30.2449 21.2006 29.9965 21.8297C26.8807 24.0653 23.7662 24.1767 20.6508 23.335C19.8498 22.3791 19.3688 21.1459 19.3688 19.7936C19.3688 16.7393 21.8223 14.2859 24.8766 14.2859ZM44.7803 27.5463L2.34024 33.5339V35.4785L46.2195 29.2859C45.6857 28.7726 45.2034 28.1876 44.7804 27.5463H44.7803ZM56.1657 29.4653C55.4357 30.1094 54.68 30.5947 53.9064 30.9301L53.8185 50.7495L55.1808 50.6103L56.1659 50.5114V29.4656L56.1657 29.4653ZM49.0689 31.095L2.34024 37.6941V43.8757L5.95465 41.8652L6.49289 41.5649L7.02762 41.8725C8.95828 42.9721 10.3622 43.1557 11.7333 42.7881C13.1044 42.4203 14.5376 41.3944 16.1718 39.7559L16.6259 39.3018L17.2446 39.4775C20.0586 40.2751 21.7042 40.5922 22.9943 40.3711C24.2843 40.15 25.4838 39.3864 27.473 37.5844L28.2089 36.9176L28.9413 37.5844C29.85 38.4082 30.2647 38.4867 30.4027 38.4814C30.5405 38.4762 30.7835 38.3359 31.3328 37.9724C31.8821 37.6091 32.7218 37.1228 33.8558 37.0753C34.8268 37.0348 35.9715 37.3144 37.3679 37.9762C38.3493 37.0901 39.1274 36.5009 40.1511 36.3832C41.158 36.2672 42.0045 36.6478 43.0698 37.2143C43.8578 36.5854 44.6521 36.2319 45.4174 36.1413C46.3854 36.0267 47.1998 36.2726 47.8784 36.4636C48.5569 36.6546 49.1105 36.8011 49.6727 36.7639C50.2184 36.7276 50.8329 36.5419 51.6942 35.885L51.7125 31.472C50.8008 31.5318 49.9066 31.3937 49.0688 31.0949L49.0689 31.095ZM45.8423 38.3055C45.7854 38.3071 45.7289 38.3102 45.6739 38.3167C45.2345 38.3686 44.7458 38.5561 43.9966 39.3089L43.4217 39.8876L42.7004 39.4993C41.3063 38.7475 40.69 38.5249 40.4006 38.5583C40.1112 38.5915 39.5348 38.945 38.3023 40.0853L37.7273 40.6164L37.0389 40.2465C35.5112 39.4239 34.5526 39.2399 33.948 39.2651C33.3434 39.2903 33.0105 39.4857 32.5418 39.7959C32.0728 40.1062 31.4578 40.6342 30.4873 40.6713C29.7449 40.6995 29.0171 40.4053 28.2241 39.8217C26.4865 41.3159 25.0355 42.2416 23.3644 42.5279C21.6068 42.8291 19.7776 42.4447 17.2488 41.7443C15.6574 43.2705 14.0879 44.4253 12.3012 44.9045C10.5002 45.3877 8.55738 45.1092 6.50039 44.0659L2.34024 46.3803V48.4534C6.07383 46.7507 9.77695 46.8087 13.572 47.8089C14.8554 46.0511 16.4568 44.8677 18.4719 44.553C20.477 44.2402 22.7746 44.7605 25.5653 45.9227C26.079 44.8181 26.709 44.0557 27.5026 43.6193C28.5339 43.0521 29.6128 43.1357 30.5312 43.2639C32.3682 43.5205 33.7363 44.0367 35.5925 42.5095L36.0906 42.0994L36.6911 42.3373C39.4282 43.4166 42.6219 43.6553 45.319 41.4584L45.9998 40.9056L46.6884 41.4476C48.4777 42.8522 50.1595 42.7679 51.6689 41.6709L51.6836 38.4483C51.0326 38.7536 50.4053 38.9109 49.8161 38.9498C48.8036 39.017 47.9604 38.7627 47.2855 38.5727C46.6949 38.4066 46.2414 38.2958 45.8426 38.3055H45.8423ZM46.0439 43.6523C42.9513 45.7696 39.3648 45.5775 36.4528 44.5679C34.0872 46.1706 31.7119 45.639 30.2309 45.4322C29.4348 45.3209 28.9399 45.3299 28.5609 45.5384C28.1816 45.7469 27.6949 46.2661 27.2095 47.7028L26.8213 48.8524L25.7153 48.3509C22.5993 46.9317 20.3824 46.4681 18.8086 46.7137C17.2348 46.9596 16.121 47.8309 14.9633 49.6472L14.5204 50.343L13.7293 50.1087C9.62191 48.8934 6.15317 48.8075 2.34012 50.8997V55.9827L3.54481 55.8616L51.6284 50.9728L51.6577 44.1244C49.8949 44.8357 47.8696 44.7613 46.0436 43.6521L46.0439 43.6523Z" fill="#7C1F2A"/>
</svg>
