<svg width="60" height="60" viewBox="0 0 60 60" fill="none" xmlns="http://www.w3.org/2000/svg">
<path d="M45.125 52.5L38.3 40.65C38.3 36.325 35.625 33.55 32.375 33.55C30.125 33.55 28.175 34.8 27.175 36.65C28 36.175 28.975 35.925 30 35.925C33.25 35.925 35.9 38.575 35.9 41.825C35.9 45.1 33.275 47.775 30 47.775H38.25V52.5H16.975C16.375 52.5 15.75 52.275 15.3 51.8C14.856 51.3556 14.6067 50.7531 14.6067 50.125C14.6067 49.4968 14.856 48.8944 15.3 48.45L16.55 47.2C15.7 46.825 15 46.25 14.3 45.65C13.75 46.9 12.5 47.775 11.05 47.775C10.1052 47.775 9.19902 47.3997 8.53092 46.7316C7.86282 46.0635 7.48749 45.1573 7.48749 44.2125C7.48749 43.2677 7.86282 42.3615 8.53092 41.6934C9.19902 41.0253 10.1052 40.65 11.05 40.65L12.225 40.85V35.925C12.2217 34.3679 12.526 32.8255 13.1203 31.3863C13.7147 29.9471 14.5874 28.6395 15.6884 27.5384C16.7895 26.4374 18.0971 25.5647 19.5363 24.9703C20.9755 24.376 22.5179 24.0717 24.075 24.075H24.125C29.425 24.1 33.55 26.175 33.55 22.9C33.55 20.575 34.05 19.65 34.9 18.35C33.075 17.5 31 16.975 28.825 16.975C27.5 16.975 26.45 15.925 26.45 14.6C26.45 13.525 27.15 12.625 28.125 12.325L26.45 12.225C25.15 12.225 24.075 11.175 24.075 9.875C24.075 8.55 25.15 7.5 26.45 7.5H28.825C34.075 7.5 38.675 10.375 41.15 14.625L41.85 14.6C43.625 14.6 45.275 15.175 46.625 16.125L47.75 17.075C53.175 21.95 52.5 25.25 52.5 25.275C52.5 28.475 49.85 31.1 46.625 31.1L45.4 30.975V31.175C45.4 33.95 44.2 36.425 42.325 38.175L50.6 52.5H45.125ZM45.4 19.35C44.075 19.35 43.025 20.4 43.025 21.7C43.025 23.025 44.075 24.075 45.4 24.075C46.7 24.075 47.775 23.025 47.775 21.7C47.775 20.4 46.7 19.35 45.4 19.35Z" fill="#7C1F2A"/>
</svg>
